<?xml version="1.0" encoding="utf-8"?>
<!-- Generator: Adobe Illustrator 17.0.0, SVG Export Plug-In . SVG Version: 6.00 Build 0)  -->
<!DOCTYPE svg PUBLIC "-//W3C//DTD SVG 1.1//EN" "http://www.w3.org/Graphics/SVG/1.1/DTD/svg11.dtd">
<svg version="1.1" id="Layer_1" xmlns="http://www.w3.org/2000/svg" xmlns:xlink="http://www.w3.org/1999/xlink" x="0px" y="0px"
	 width="64px" height="64px" viewBox="0 0 64 64" enable-background="new 0 0 64 64" xml:space="preserve">
<g id="Check">
	<path fill="#F69799" d="M54.628,9.373C48.38,3.123,40.189,0,32,0S15.621,3.123,9.372,9.373c-12.496,12.496-12.496,32.758,0,45.254
		C15.621,60.875,23.811,64,32,64s16.38-3.125,22.628-9.373C67.124,42.131,67.124,21.869,54.628,9.373z M51.093,51.092
		C45.993,56.191,39.212,59,32,59s-13.992-2.809-19.093-7.908c-10.526-10.527-10.526-27.656,0-38.184C18.008,7.809,24.788,5,32,5
		s13.993,2.809,19.093,7.908C61.619,23.436,61.619,40.564,51.093,51.092z"/>
	<polygon fill="#F69799" points="27.624,33.543 21.021,26.369 13.727,33.666 13.726,33.664 27.475,47.416 50.71,24.184 45.4,18.785 
			"/>
</g>
</svg>
