<?xml version="1.0" encoding="utf-8"?>
<!-- Generator: Adobe Illustrator 17.0.0, SVG Export Plug-In . SVG Version: 6.00 Build 0)  -->
<!DOCTYPE svg PUBLIC "-//W3C//DTD SVG 1.1//EN" "http://www.w3.org/Graphics/SVG/1.1/DTD/svg11.dtd">
<svg version="1.1" id="Layer_1" xmlns="http://www.w3.org/2000/svg" xmlns:xlink="http://www.w3.org/1999/xlink" x="0px" y="0px"
	 width="263.652px" height="334px" viewBox="0 0 263.652 334" enable-background="new 0 0 263.652 334" xml:space="preserve">
<g>
	<g>
		<path fill="#FF9999" d="M127,163H0V0h78.907L127,42.943V163z M10,153h107V47.421L75.093,10H10V153z"/>
	</g>
	<g>
		<polygon fill="#FF9999" points="122,53 72,53 72,5 78,5 78,47 122,47 		"/>
	</g>
</g>
<g>
	<g>
		<path fill="#FF9999" d="M263.652,163h-127V0h78.907l48.093,42.943V163z M146.652,153h107V47.421L211.745,10h-65.093V153z"/>
	</g>
	<g>
		<polygon fill="#FF9999" points="258.652,53 208.652,53 208.652,5 214.652,5 214.652,47 258.652,47 		"/>
	</g>
</g>
<g>
	<g>
		<path fill="#FF9999" d="M127,334H0V171h78.907L127,213.943V334z M10,324h107V218.421L75.093,181H10V324z"/>
	</g>
	<g>
		<polygon fill="#FF9999" points="122,224 72,224 72,176 78,176 78,218 122,218 		"/>
	</g>
</g>
</svg>
